<svg width="34" height="34" viewBox="0 0 34 34" fill="none" xmlns="http://www.w3.org/2000/svg">
<rect width="34" height="34" fill="#535353"/>
<path d="M14.851 9.37145C15.6902 9.00231 16.6239 8.90526 17.521 9.09394C18.4181 9.28263 19.2336 9.74756 19.853 10.4235C20.274 10.8825 20.566 11.4155 20.757 11.9775C20.9 12.3985 21.02 13.1505 20.977 13.8715C20.899 15.1935 20.339 16.2795 19.578 17.1875L19.451 17.3395C19.381 17.4234 19.3301 17.5217 19.3021 17.6274C19.274 17.733 19.2694 17.8436 19.2885 17.9512C19.3077 18.0589 19.3501 18.1611 19.4129 18.2506C19.4757 18.3401 19.5573 18.4148 19.652 18.4695L21.861 19.7445C22.5831 20.1614 23.1828 20.7611 23.5997 21.4832C24.0166 22.2054 24.2361 23.0246 24.236 23.8585V25.0005H9V23.8575C9.00011 23.0238 9.21964 22.2048 9.63653 21.4828C10.0534 20.7608 10.653 20.1613 11.375 19.7445L13.584 18.4695C13.6787 18.4148 13.7603 18.3401 13.8231 18.2506C13.8859 18.1611 13.9283 18.0589 13.9475 17.9512C13.9666 17.8436 13.962 17.733 13.9339 17.6274C13.9059 17.5217 13.855 17.4234 13.785 17.3395L13.659 17.1875C12.898 16.2795 12.337 15.1935 12.259 13.8715C12.216 13.1505 12.336 12.3985 12.479 11.9775C12.6687 11.4021 12.9766 10.8728 13.383 10.4235C13.794 9.97545 14.293 9.61645 14.851 9.37145ZM16.618 10.5005C16.2174 10.5004 15.8211 10.5836 15.4545 10.7449C15.0878 10.9062 14.7586 11.1421 14.488 11.4375C14.2229 11.7334 14.0226 12.0815 13.9 12.4595C13.823 12.6855 13.725 13.2425 13.757 13.7825C13.811 14.7035 14.197 15.4945 14.808 16.2245L14.81 16.2255L14.937 16.3785C15.1471 16.6303 15.2996 16.9251 15.3838 17.2422C15.4681 17.5592 15.4819 17.8908 15.4245 18.2138C15.367 18.5368 15.2397 18.8432 15.0513 19.1118C14.8629 19.3804 14.6181 19.6045 14.334 19.7685L12.125 21.0435C11.6835 21.2984 11.3082 21.6537 11.0294 22.0805C10.7506 22.5073 10.5761 22.9937 10.52 23.5005H22.716C22.6599 22.9937 22.4854 22.5073 22.2066 22.0805C21.9278 21.6537 21.5525 21.2984 21.111 21.0435L18.902 19.7685C18.6179 19.6045 18.3731 19.3804 18.1847 19.1118C17.9963 18.8432 17.869 18.5368 17.8115 18.2138C17.7541 17.8908 17.7679 17.5592 17.8522 17.2422C17.9364 16.9251 18.0889 16.6303 18.299 16.3785L18.426 16.2255L18.428 16.2245C19.04 15.4945 19.425 14.7045 19.48 13.7825C19.512 13.2425 19.413 12.6855 19.336 12.4595C19.2134 12.0815 19.0131 11.7334 18.748 11.4375C18.4774 11.1421 18.1482 10.9062 17.7815 10.7449C17.4149 10.5836 17.0186 10.5004 16.618 10.5005Z" fill="#B3B3B3"/>
</svg>
